<svg width="14" height="18" viewBox="0 0 14 18" fill="none" xmlns="http://www.w3.org/2000/svg">
<path d="M12.3071 10.2014V7.374C12.3058 6.11421 11.8795 4.89551 11.1037 3.93374C10.3278 2.97197 9.25239 2.32918 8.06793 2.11922V1.15006C8.06793 0.914246 7.97861 0.688092 7.81961 0.521347C7.66061 0.354602 7.44496 0.260925 7.2201 0.260925C6.99525 0.260925 6.7796 0.354602 6.6206 0.521347C6.4616 0.688092 6.37228 0.914246 6.37228 1.15006V2.11922C5.18782 2.32918 4.11242 2.97197 3.33654 3.93374C2.56066 4.89551 2.13437 6.11421 2.13315 7.374V10.2014C1.6384 10.3849 1.20987 10.7243 0.906295 11.1732C0.602723 11.6221 0.438975 12.1585 0.4375 12.7088V14.4871C0.4375 14.7229 0.526824 14.949 0.685823 15.1158C0.844821 15.2825 1.06047 15.3762 1.28533 15.3762H3.9475C4.14274 16.1296 4.56896 16.7947 5.16039 17.2689C5.75183 17.7431 6.47563 18 7.2201 18C7.96458 18 8.68838 17.7431 9.27981 17.2689C9.87125 16.7947 10.2975 16.1296 10.4927 15.3762H13.1549C13.3797 15.3762 13.5954 15.2825 13.7544 15.1158C13.9134 14.949 14.0027 14.7229 14.0027 14.4871V12.7088C14.0012 12.1585 13.8375 11.6221 13.5339 11.1732C13.2303 10.7243 12.8018 10.3849 12.3071 10.2014ZM3.8288 7.374C3.8288 6.43075 4.1861 5.52613 4.82209 4.85915C5.45808 4.19217 6.32067 3.81746 7.2201 3.81746C8.11953 3.81746 8.98212 4.19217 9.61812 4.85915C10.2541 5.52613 10.6114 6.43075 10.6114 7.374V10.0414H3.8288V7.374ZM7.2201 16.2653C6.92419 16.2635 6.63389 16.1804 6.37807 16.0244C6.12225 15.8685 5.9098 15.645 5.76184 15.3762H8.67836C8.53041 15.645 8.31796 15.8685 8.06214 16.0244C7.80631 16.1804 7.51602 16.2635 7.2201 16.2653ZM12.3071 13.5979H2.13315V12.7088C2.13315 12.473 2.22248 12.2468 2.38147 12.0801C2.54047 11.9133 2.75612 11.8197 2.98098 11.8197H11.4592C11.6841 11.8197 11.8997 11.9133 12.0587 12.0801C12.2177 12.2468 12.3071 12.473 12.3071 12.7088V13.5979Z" fill="white"/>
</svg>
