<svg width="17" height="17" viewBox="0 0 17 17" fill="none" xmlns="http://www.w3.org/2000/svg">
<path d="M5.11675 7.64966C4.94887 7.64966 4.78476 7.69951 4.64518 7.79291C4.50559 7.8863 4.3968 8.01905 4.33255 8.17436C4.26831 8.32967 4.2515 8.50057 4.28425 8.66544C4.317 8.83032 4.39785 8.98177 4.51655 9.10064C4.63526 9.21951 4.7865 9.30046 4.95115 9.33325C5.11581 9.36605 5.28647 9.34922 5.44157 9.28489C5.59667 9.22056 5.72923 9.11161 5.8225 8.97184C5.91577 8.83206 5.96555 8.66773 5.96555 8.49962C5.96555 8.2742 5.87612 8.05801 5.71694 7.89861C5.55776 7.73921 5.34186 7.64966 5.11675 7.64966ZM8.51196 7.64966C8.34408 7.64966 8.17998 7.69951 8.04039 7.79291C7.90081 7.8863 7.79201 8.01905 7.72777 8.17436C7.66353 8.32967 7.64672 8.50057 7.67947 8.66544C7.71222 8.83032 7.79306 8.98177 7.91177 9.10064C8.03048 9.21951 8.18172 9.30046 8.34637 9.33325C8.51102 9.36605 8.68169 9.34922 8.83679 9.28489C8.99188 9.22056 9.12445 9.11161 9.21772 8.97184C9.31098 8.83206 9.36077 8.66773 9.36077 8.49962C9.36077 8.2742 9.27134 8.05801 9.11216 7.89861C8.95298 7.73921 8.73708 7.64966 8.51196 7.64966ZM11.9072 7.64966C11.7393 7.64966 11.5752 7.69951 11.4356 7.79291C11.296 7.8863 11.1872 8.01905 11.123 8.17436C11.0587 8.32967 11.0419 8.50057 11.0747 8.66544C11.1074 8.83032 11.1883 8.98177 11.307 9.10064C11.4257 9.21951 11.5769 9.30046 11.7416 9.33325C11.9062 9.36605 12.0769 9.34922 12.232 9.28489C12.3871 9.22056 12.5197 9.11161 12.6129 8.97184C12.7062 8.83206 12.756 8.66773 12.756 8.49962C12.756 8.2742 12.6666 8.05801 12.5074 7.89861C12.3482 7.73921 12.1323 7.64966 11.9072 7.64966ZM8.51196 0C7.3973 0 6.29355 0.219849 5.26373 0.646995C4.23391 1.07414 3.2982 1.70022 2.51001 2.48948C0.918197 4.08347 0.0239247 6.24538 0.0239247 8.49962C0.0165043 10.4623 0.695152 12.3657 1.94222 13.8799L0.244614 15.5798C0.126836 15.6993 0.0470513 15.8511 0.015328 16.016C-0.0163953 16.1809 0.00136394 16.3515 0.0663648 16.5063C0.136865 16.6592 0.251153 16.7877 0.394722 16.8755C0.538291 16.9633 0.704666 17.0063 0.872728 16.9992H8.51196C10.7631 16.9992 12.9221 16.1038 14.5139 14.5098C16.1057 12.9158 17 10.7539 17 8.49962C17 6.24538 16.1057 4.08347 14.5139 2.48948C12.9221 0.895494 10.7631 0 8.51196 0ZM8.51196 15.2993H2.91835L3.70773 14.5089C3.78794 14.4301 3.85174 14.3363 3.89545 14.2327C3.93916 14.1291 3.96191 14.0178 3.96237 13.9054C3.95918 13.6812 3.86766 13.4673 3.70773 13.3104C2.5963 12.1987 1.90417 10.7355 1.74928 9.17007C1.59439 7.60466 1.98631 6.03389 2.85827 4.72538C3.73024 3.41688 5.02829 2.4516 6.53129 1.99399C8.03429 1.53638 9.64924 1.61476 11.101 2.21578C12.5528 2.81679 13.7515 3.90326 14.493 5.29007C15.2345 6.67689 15.4729 8.27825 15.1675 9.82132C14.8622 11.3644 14.032 12.7537 12.8184 13.7526C11.6048 14.7515 10.0829 15.2981 8.51196 15.2993Z" fill="white"/>
</svg>
