<svg width="16" height="17" viewBox="0 0 16 17" fill="none" xmlns="http://www.w3.org/2000/svg">
<path d="M15.9944 4.94848C15.9982 4.89473 15.9982 4.84075 15.9944 4.787L14.3949 0.53752C14.3325 0.369543 14.2213 0.227084 14.0775 0.130807C13.9337 0.0345301 13.7648 -0.0105573 13.5952 0.00208513H2.39916C2.23899 0.00192035 2.08247 0.0528704 1.94986 0.148336C1.81726 0.243801 1.71468 0.379383 1.65542 0.53752L0.0559803 4.787C0.0521254 4.84075 0.0521254 4.89473 0.0559803 4.94848C0.0294063 4.99579 0.010484 5.0475 0 5.10146C0.00890134 5.68894 0.160924 6.26395 0.441241 6.77038C0.721557 7.27682 1.1206 7.6974 1.59944 7.99111V16.1501C1.59944 16.3755 1.68369 16.5917 1.83367 16.7511C1.98365 16.9105 2.18706 17 2.39916 17H13.5952C13.8073 17 14.0107 16.9105 14.1607 16.7511C14.3107 16.5917 14.3949 16.3755 14.3949 16.1501V8.0251C14.8784 7.72847 15.2804 7.30254 15.561 6.78964C15.8416 6.27674 15.991 5.69473 15.9944 5.10146C16.0019 5.05078 16.0019 4.99916 15.9944 4.94848ZM8.79691 15.3002H7.19747V11.9006H8.79691V15.3002ZM12.7955 15.3002H10.3963V11.0507C10.3963 10.8253 10.3121 10.6091 10.1621 10.4498C10.0121 10.2904 9.80873 10.2008 9.59663 10.2008H6.39775C6.18565 10.2008 5.98224 10.2904 5.83227 10.4498C5.68229 10.6091 5.59803 10.8253 5.59803 11.0507V15.3002H3.19888V8.50104C3.65429 8.49831 4.10391 8.39227 4.51765 8.19C4.9314 7.98774 5.29974 7.69392 5.59803 7.32819C5.89822 7.68993 6.2674 7.97964 6.68105 8.17808C7.0947 8.37653 7.54335 8.47916 7.99719 8.47916C8.45103 8.47916 8.89968 8.37653 9.31333 8.17808C9.72698 7.97964 10.0962 7.68993 10.3963 7.32819C10.6946 7.69392 11.063 7.98774 11.4767 8.19C11.8905 8.39227 12.3401 8.49831 12.7955 8.50104V15.3002ZM12.7955 6.80125C12.3713 6.80125 11.9645 6.62217 11.6645 6.30339C11.3646 5.98462 11.1961 5.55227 11.1961 5.10146C11.1961 4.87605 11.1118 4.65988 10.9618 4.50049C10.8119 4.34111 10.6084 4.25156 10.3963 4.25156C10.1842 4.25156 9.98084 4.34111 9.83086 4.50049C9.68089 4.65988 9.59663 4.87605 9.59663 5.10146C9.59663 5.55227 9.42812 5.98462 9.12816 6.30339C8.82821 6.62217 8.42139 6.80125 7.99719 6.80125C7.57299 6.80125 7.16617 6.62217 6.86622 6.30339C6.56626 5.98462 6.39775 5.55227 6.39775 5.10146C6.39775 4.87605 6.3135 4.65988 6.16352 4.50049C6.01354 4.34111 5.81013 4.25156 5.59803 4.25156C5.38593 4.25156 5.18252 4.34111 5.03255 4.50049C4.88257 4.65988 4.79831 4.87605 4.79831 5.10146C4.80619 5.32468 4.77262 5.54736 4.69952 5.75679C4.62642 5.96623 4.51521 6.1583 4.37226 6.32206C4.22931 6.48582 4.05741 6.61806 3.86637 6.71121C3.67533 6.80437 3.4689 6.85662 3.25886 6.86499C2.83466 6.8819 2.42152 6.71903 2.11031 6.41221C1.95622 6.26029 1.8318 6.0776 1.74414 5.87457C1.65648 5.67155 1.60731 5.45216 1.59944 5.22894L2.94297 1.70188H13.0514L14.3949 5.22894C14.3646 5.65731 14.1828 6.05758 13.8861 6.34928C13.5894 6.64098 13.1997 6.80246 12.7955 6.80125Z" fill="white"/>
</svg>
