<svg width="64" height="30" viewBox="0 0 64 30" fill="none" xmlns="http://www.w3.org/2000/svg">
<path d="M11.6162 13.5926H21.9131C22.2872 13.5926 22.5722 13.0938 22.5722 12.4881C22.5722 11.8824 22.2694 11.3836 21.9131 11.3836H11.6162C11.2421 11.3836 10.957 11.8824 10.957 12.4881C10.957 13.0938 11.2421 13.5926 11.6162 13.5926Z" fill="#FAD05E"/>
<path d="M13.7185 20.2198H20.4703C20.8444 20.2198 21.1294 19.721 21.1294 19.1153C21.1294 18.5096 20.8266 18.0107 20.4703 18.0107H13.7185C13.3444 18.0107 13.0593 18.5096 13.0593 19.1153C13.0415 19.7388 13.3444 20.2198 13.7185 20.2198Z" fill="#E52628"/>
<path d="M12.7576 16.8171H21.2196C21.5937 16.8171 21.8787 16.3183 21.8787 15.7126C21.8787 15.1069 21.5758 14.6081 21.2196 14.6081H12.7576C12.3834 14.6081 12.0984 15.1069 12.0984 15.7126C12.0806 16.3183 12.3834 16.8171 12.7576 16.8171Z" fill="#FAD05E"/>
<path d="M11.5082 13.5749L21.1282 16.7816C21.4845 16.8885 21.8408 16.4787 21.8942 15.873C21.9477 15.2673 21.7161 14.6973 21.3598 14.5904L11.7398 11.3837C11.3835 11.2768 11.0272 11.6866 10.9738 12.2923C10.9025 12.898 11.1341 13.468 11.5082 13.5749Z" fill="#FAD05E"/>
<path d="M12.6298 16.7994L20.3792 20.202C20.7355 20.3089 21.0918 19.8992 21.1452 19.2935C21.1987 18.6878 20.9671 18.1177 20.593 18.0108L12.8436 14.6082C12.4873 14.5013 12.131 14.9111 12.0775 15.5168C12.0241 16.1225 12.2735 16.6925 12.6298 16.7994Z" fill="#FAD05E"/>
<path d="M19.8633 23.1058C19.8633 23.7649 20.3977 24.3172 21.0747 24.3172C21.7338 24.3172 22.2861 23.7827 22.2861 23.1058C22.2861 22.4288 21.7516 21.8943 21.0747 21.8943C20.4155 21.8943 19.8633 22.4288 19.8633 23.1058Z" fill="#4B484A"/>
<path d="M8.6563 14.4477C9.55163 14.4477 10.2774 13.7219 10.2774 12.8266C10.2774 11.9313 9.55163 11.2054 8.6563 11.2054C7.76097 11.2054 7.03516 11.9313 7.03516 12.8266C7.03516 13.7219 7.76097 14.4477 8.6563 14.4477Z" fill="white"/>
<path d="M12.043 28.3967C12.043 29.2518 12.7377 29.9644 13.6107 29.9644C14.4658 29.9644 15.1784 29.2696 15.1784 28.3967C15.1784 27.5416 14.4836 26.829 13.6107 26.829C12.7377 26.829 12.043 27.5416 12.043 28.3967Z" fill="white"/>
<path d="M58.9668 14.8754C58.9134 14.4478 58.8065 14.0203 58.6818 13.5927C58.5393 13.1652 58.3611 12.7554 58.1117 12.3635C57.8089 11.8825 57.4704 11.4906 57.0785 11.2055C56.7044 10.9205 56.3124 10.6889 55.9027 10.5286C55.493 10.3682 55.0832 10.2614 54.6735 10.2079C54.2637 10.1545 53.854 10.1366 53.4621 10.1366H50.7721C50.6474 10.1366 50.4692 10.1366 50.2198 10.1366C49.9704 10.1366 49.6854 10.1545 49.3825 10.1901C49.0618 10.2257 48.7234 10.2792 48.3671 10.3504C48.0108 10.4217 47.6545 10.5286 47.2982 10.6711C46.9419 10.8136 46.6034 10.9918 46.2827 11.2055C45.9621 11.4193 45.6949 11.6865 45.4633 11.9894L45.4811 5.55826C45.4811 5.54045 45.4811 5.52263 45.4811 5.50482C45.4811 4.64971 44.7863 3.93712 43.9134 3.93712C43.0583 3.93712 42.3457 4.63189 42.3457 5.50482C42.3457 5.52263 42.3457 5.54045 42.3457 5.55826H42.3279V16.9597C42.3279 16.9597 42.221 18.759 42.702 20.1485C43.183 21.5381 43.7709 21.8944 43.7709 21.8944H40.1367H39.8694H39.7982C39.5131 21.8944 39.2103 21.8766 38.8896 21.8409C38.569 21.8053 38.2661 21.734 37.9811 21.6093C37.696 21.4846 37.4288 21.3243 37.215 21.0927C36.9834 20.8789 36.8231 20.5761 36.7162 20.202L36.645 18.2602V5.54045C36.645 5.52263 36.645 5.50482 36.645 5.46919C36.645 4.61408 35.9502 3.90149 35.0773 3.90149C34.2222 3.90149 33.5096 4.59627 33.5096 5.46919C33.5096 5.487 33.5096 5.50482 33.5096 5.54045C33.5096 7.67822 33.5096 9.4775 33.5096 10.9561C33.5096 12.4348 33.5096 13.6462 33.5096 14.6081V16.8528V18.0286C33.5096 18.278 33.5096 18.4383 33.5096 18.4918C33.5096 18.5452 33.5096 18.5986 33.5096 18.6165C33.4918 19.0796 33.4561 19.5072 33.3849 19.9169C33.3136 20.3267 33.1533 20.7008 32.9217 21.0215C32.6901 21.3243 32.4051 21.5381 32.0666 21.6806C31.7103 21.8053 31.2471 21.8766 30.6592 21.8766H30.3385V21.8944H30.2851C30.0001 21.8944 29.6972 21.8766 29.3766 21.8409C29.0559 21.8053 28.753 21.734 28.468 21.6093C28.183 21.4846 27.9157 21.3243 27.702 21.0927C27.4704 20.8789 27.31 20.5761 27.2032 20.202L27.1319 18.2602V10.0832C27.0963 9.24591 26.4193 8.56895 25.582 8.56895C24.7447 8.56895 24.0499 9.24591 24.0321 10.0832H24.0143C24.0143 11.4549 24.0143 12.6307 24.0143 13.5749C24.0143 14.5369 24.0143 15.3207 24.0143 15.9443V17.4051V18.1711C24.0143 18.3314 24.0143 18.4383 24.0143 18.4918C24.0143 18.5452 24.0143 18.5808 24.0143 18.5808C24.0143 19.044 23.9609 19.4716 23.8896 19.8813C23.8184 20.2911 23.658 20.6652 23.4264 20.9858C23.1948 21.2887 22.9098 21.5025 22.5713 21.645C22.215 21.7697 21.7518 21.8409 21.164 21.8409L14.0024 21.8587C13.5749 21.8587 13.2008 21.8409 12.8623 21.7875C12.5238 21.7519 12.2388 21.6806 11.9716 21.5737C11.7221 21.4668 11.4906 21.3421 11.3124 21.1818C11.1343 21.0215 10.9739 20.8255 10.8314 20.5939C10.5642 20.1663 10.4039 19.6675 10.3504 19.1153C10.297 18.563 10.2792 17.993 10.2792 17.3872L10.297 13.1473C10.297 13.1473 10.2792 11.6687 8.67583 11.6687C7.0725 11.6687 7.05469 13.1473 7.05469 13.1473V17.3872C7.05469 17.8326 7.0725 18.2958 7.09032 18.7412C7.10813 19.1865 7.16158 19.6319 7.23283 20.0595C7.30409 20.487 7.4288 20.8968 7.58913 21.2887C7.74946 21.6806 7.96324 22.0547 8.21265 22.411C8.55113 22.8742 8.92523 23.2305 9.31716 23.4977C9.70908 23.7471 10.1188 23.9431 10.5107 24.0678C10.9027 24.1925 11.3124 24.2637 11.6865 24.2994C12.0784 24.3172 12.4347 24.335 12.7732 24.335L21.7875 24.3172C22.1616 24.3172 22.5001 24.3172 22.8385 24.2994C23.177 24.2816 23.5155 24.2281 23.8362 24.1568C24.1568 24.0856 24.4775 23.9787 24.7625 23.8362C25.0654 23.6937 25.3504 23.4977 25.6355 23.2661C25.9027 23.5155 26.2055 23.7115 26.5084 23.854C26.8112 23.9965 27.1319 24.1034 27.4526 24.1747C27.7732 24.2459 28.0939 24.2994 28.4146 24.3172C28.7352 24.335 29.0381 24.3528 29.3409 24.3528H30.6236V24.335H31.3005C31.6747 24.335 32.0131 24.335 32.3516 24.3172C32.6901 24.2994 33.0286 24.2459 33.3492 24.1747C33.6699 24.1034 33.9906 23.9965 34.2934 23.854C34.5963 23.7115 34.8813 23.5155 35.1663 23.2839C35.4336 23.5333 35.7186 23.7293 36.0393 23.8718C36.3421 24.0143 36.6628 24.1212 36.9834 24.1925C37.3041 24.2637 37.6248 24.3172 37.9454 24.335C38.2661 24.3528 38.569 24.3706 38.8718 24.3706H39.8872H40.1545H53.3374C53.6759 24.3706 54.05 24.3528 54.4419 24.335C54.8338 24.3172 55.2257 24.2281 55.6177 24.1034C56.0096 23.9787 56.4015 23.7827 56.7934 23.5333C57.1854 23.2839 57.5417 22.9098 57.8801 22.4466C58.1474 22.0725 58.3611 21.6984 58.5215 21.3065C58.6818 20.9146 58.7887 20.5226 58.8778 20.0951C58.949 19.6854 59.0025 19.2578 59.0203 18.8124C59.0381 18.3671 59.0559 17.9217 59.0559 17.4407C59.0559 17.0488 59.0559 16.6212 59.0381 16.1937C59.0559 15.7305 59.0203 15.3029 58.9668 14.8754ZM55.778 19.1509C55.7246 19.7032 55.5642 20.202 55.297 20.6473C55.1723 20.8789 55.012 21.0749 54.816 21.2352C54.6379 21.3956 54.4063 21.5203 54.1569 21.6272C53.9074 21.734 53.6046 21.8053 53.2661 21.8409C52.9276 21.8766 52.5535 21.9122 52.126 21.9122H47.993C46.6568 21.645 45.6236 20.5405 45.4454 19.1687V16.7815C45.6236 15.4454 46.0868 14.4122 46.835 13.6818C47.5832 12.9514 48.5808 12.5773 49.8279 12.5238H52.1972C52.411 12.5238 52.6604 12.5416 52.9276 12.5416C53.1949 12.5595 53.4621 12.6129 53.7471 12.6842C54.0143 12.7554 54.2816 12.8801 54.531 13.0226C54.7804 13.1652 55.012 13.3789 55.1901 13.6462C55.4573 14.0203 55.6355 14.5191 55.7424 15.1248C55.8314 15.7305 55.8849 16.4965 55.8849 17.4051C55.8493 18.0108 55.8314 18.5986 55.778 19.1509ZM63.9728 22.7495C63.9728 23.6224 63.2602 24.3172 62.4051 24.3172C61.55 24.3172 60.8374 23.6224 60.8374 22.7495V5.55826H60.8552C60.8552 5.54045 60.8552 5.52263 60.8552 5.50482C60.8552 4.64971 61.55 3.93712 62.4229 3.93712C63.278 3.93712 63.9906 4.63189 63.9906 5.50482C63.9906 5.52263 63.9906 5.54045 63.9906 5.55826H64.0084V22.7495H63.9728Z" fill="url(#paint0_radial_1361_13253)"/>
<path d="M30.6397 24.3171H31.3166C31.6908 24.3171 32.0292 24.3171 32.3677 24.2993C32.7062 24.2815 33.0447 24.228 33.3653 24.1568C33.686 24.0855 34.0067 23.9786 34.3095 23.8361C34.6124 23.6936 34.8974 23.4976 35.1824 23.266C35.4497 23.5154 35.7347 23.7114 36.0554 23.8539C36.3582 23.9964 36.6789 24.1033 36.9995 24.1746C37.3202 24.2458 37.6409 24.2993 37.9615 24.3171C38.2822 24.3349 38.5851 24.3527 38.8879 24.3527H39.9033H40.1706H53.3535C53.692 24.3527 54.0661 24.3349 54.458 24.3171C54.8499 24.2993 55.2418 24.2102 55.6338 24.0855C56.0257 23.9608 56.4176 23.7648 56.8095 23.5154C57.2015 23.266 57.5578 22.8919 57.8962 22.4287C58.1635 22.0546 58.3772 21.6805 58.5376 21.2886C58.6979 20.8967 58.8048 20.5047 58.8939 20.0772C58.9473 19.7565 59.0007 19.418 59.0186 19.0796C57.9675 18.8836 56.8986 18.6876 55.8119 18.5095C55.7941 18.7411 55.7941 18.9549 55.7585 19.1686C55.705 19.7209 55.5447 20.2197 55.2775 20.6651C55.1528 20.8967 54.9924 21.0926 54.7965 21.253C54.6183 21.4133 54.3867 21.538 54.1373 21.6449C53.8879 21.7518 53.5851 21.823 53.2466 21.8587C52.9081 21.8943 52.534 21.9299 52.1064 21.9299H47.9734C46.6373 21.6627 45.6041 20.5582 45.4259 19.1865V17.1556C44.3927 17.0665 43.3594 16.9774 42.3083 16.8884V16.9774C42.3083 16.9774 42.2015 18.7767 42.6824 20.1663C43.1634 21.5558 43.7513 21.9121 43.7513 21.9121H40.1171H39.8499H39.7786C39.4936 21.9121 39.1908 21.8943 38.8701 21.8587C38.5494 21.823 38.2466 21.7518 37.9615 21.6271C37.6765 21.5024 37.4093 21.342 37.1955 21.1104C36.9639 20.8967 36.8036 20.5938 36.6967 20.2197L36.6254 18.2779V16.5499C35.5922 16.5142 34.5411 16.4786 33.49 16.443V16.8705V18.0463C33.49 18.2957 33.49 18.456 33.49 18.5095C33.49 18.5629 33.49 18.6164 33.49 18.6342C33.4722 19.0974 33.4366 19.5249 33.3653 19.9347C33.2941 20.3444 33.1337 20.7185 32.9022 21.0392C32.6706 21.342 32.3855 21.5558 32.047 21.6983C31.6908 21.823 31.2276 21.8943 30.6397 21.8943H30.319V21.9121H30.2834C29.9984 21.9121 29.6955 21.8943 29.3748 21.8587C29.0542 21.823 28.7513 21.7518 28.4663 21.6271C28.1812 21.5024 27.914 21.342 27.7003 21.1104C27.4687 20.8967 27.3083 20.5938 27.2014 20.2197L27.1302 18.2779V16.4252C26.0791 16.443 25.028 16.4608 23.9948 16.4964V17.4406V18.2066C23.9948 18.367 23.9948 18.4739 23.9948 18.5273C23.9948 18.5808 23.9948 18.6164 23.9948 18.6164C23.9948 19.0796 23.9413 19.5071 23.8701 19.9169C23.7988 20.3266 23.6385 20.7007 23.4069 21.0214C23.1753 21.3242 22.8903 21.538 22.5518 21.6805C22.1955 21.8052 21.7323 21.8765 21.1444 21.8765L13.9829 21.8943C13.5554 21.8943 13.1812 21.8765 12.8428 21.823C12.5043 21.7874 12.2192 21.7161 11.952 21.6093C11.7026 21.5024 11.471 21.3777 11.2929 21.2173C11.1147 21.057 10.9544 20.861 10.8119 20.6294C10.5447 20.2019 10.3843 19.7031 10.3309 19.1508C10.2774 18.6342 10.2596 18.0998 10.2596 17.5297C9.17293 17.6544 8.10404 17.7969 7.03516 17.9572C7.03516 18.2066 7.03516 18.4739 7.05297 18.7233C7.07079 19.1686 7.12423 19.614 7.19549 20.0416C7.26675 20.4691 7.39145 20.8789 7.55178 21.2708C7.71212 21.6627 7.92589 22.0368 8.1753 22.3931C8.51378 22.8563 8.88789 23.2126 9.27981 23.4798C9.67174 23.7292 10.0815 23.9252 10.4734 24.0499C10.8653 24.1746 11.2751 24.2458 11.6492 24.2815C12.0411 24.2993 12.3974 24.3171 12.7359 24.3171L21.7501 24.2993C22.1242 24.2993 22.4627 24.2993 22.8012 24.2815C23.1397 24.2637 23.4782 24.2102 23.7988 24.1389C24.1195 24.0677 24.4402 23.9608 24.7252 23.8183C25.028 23.6758 25.3131 23.4798 25.5981 23.2482C25.8653 23.4976 26.1682 23.6936 26.471 23.8361C26.7739 23.9786 27.0945 24.0855 27.4152 24.1568C27.7359 24.228 28.0565 24.2815 28.3772 24.2993C28.6979 24.3171 29.0007 24.3349 29.3036 24.3349L30.6397 24.3171Z" fill="#A5C840"/>
<path d="M63.9713 20.095C62.9381 19.8634 61.887 19.6318 60.8359 19.418V22.7494C60.8359 23.6045 61.5307 24.3171 62.4036 24.3171C63.2587 24.3171 63.9713 23.6223 63.9713 22.7494V20.095Z" fill="#A5C840"/>
<path d="M8.6223 13.8064C8.49759 13.8064 8.37289 13.7886 8.24819 13.753L1.0154 11.6152C0.302815 11.4015 -0.0891096 10.671 0.124667 9.95846C0.338444 9.24587 1.06885 8.85394 1.78144 9.06772L9.01422 11.2055C9.72681 11.4193 10.1187 12.1497 9.90496 12.8623C9.72681 13.4323 9.21018 13.8064 8.6223 13.8064Z" fill="white"/>
<path d="M21.0571 21.8943C20.9502 21.8943 21.2708 21.9121 21.164 21.9121L14.0024 21.93C13.5749 21.93 13.2008 21.9121 12.8623 21.8587C12.5238 21.8231 12.2388 21.7518 11.9716 21.6449C11.7221 21.538 11.4906 21.4133 11.3124 21.253C11.1343 21.0927 10.9739 20.8967 10.8314 20.6651C10.5642 20.2376 10.4039 19.7387 10.3504 19.1865C10.297 18.6342 10.2792 18.0642 10.2792 17.4585L10.297 13.2186C10.297 13.2186 10.2792 11.7399 8.67583 11.7399C7.0725 11.7399 7.05469 13.2186 7.05469 13.2186V17.3872C7.05469 17.8326 7.0725 18.2958 7.09032 18.7411C7.10813 19.1865 7.16158 19.6319 7.23283 20.0594C7.30409 20.487 7.4288 20.8967 7.58913 21.2886C7.74946 21.6806 7.96324 22.0547 8.21265 22.411C8.55113 22.8741 8.92523 23.2304 9.31716 23.4977C9.70908 23.7471 10.1188 23.943 10.5107 24.0677C10.9027 24.1924 11.3124 24.2637 11.6865 24.2993C12.0784 24.3171 12.4347 24.335 12.7732 24.335L21.0571 24.3171V21.8943Z" fill="white"/>
<path d="M60.8359 28.3967C60.8359 29.2518 61.5307 29.9644 62.4036 29.9644C63.2587 29.9644 63.9713 29.2696 63.9713 28.3967C63.9713 27.5416 63.2766 26.829 62.4036 26.829C61.5485 26.829 60.8359 27.5416 60.8359 28.3967Z" fill="#FAD05E"/>
<path d="M56.1523 28.3967C56.1523 29.2518 56.8471 29.9644 57.72 29.9644C58.5751 29.9644 59.2877 29.2696 59.2877 28.3967C59.2877 27.5416 58.593 26.829 57.72 26.829C56.8649 26.829 56.1523 27.5416 56.1523 28.3967Z" fill="#FAD05E"/>
<path d="M51.4688 28.3967C51.4688 29.2518 52.1635 29.9644 53.0365 29.9644C53.8916 29.9644 54.6041 29.2696 54.6041 28.3967C54.6041 27.5416 53.9094 26.829 53.0365 26.829C52.1813 26.829 51.4688 27.5416 51.4688 28.3967Z" fill="#E52628"/>
<path d="M61.5664 27.0784C61.5842 27.9157 62.279 28.5926 63.1163 28.5926C63.4191 28.5926 63.7042 28.5036 63.9536 28.3432C63.9358 27.5059 63.241 26.829 62.4037 26.829C62.1008 26.829 61.8158 26.9181 61.5664 27.0784Z" fill="#FAD05E"/>
<path d="M56.8828 27.0784C56.9006 27.9157 57.5954 28.5926 58.4327 28.5926C58.7355 28.5926 59.0206 28.5036 59.27 28.3432C59.2522 27.5059 58.5574 26.829 57.7201 26.829C57.4173 26.829 57.1322 26.9181 56.8828 27.0784Z" fill="#FAD05E"/>
<path d="M52.1953 27.0784C52.2131 27.9157 52.9079 28.5926 53.7452 28.5926C54.048 28.5926 54.3331 28.5036 54.5825 28.3432C54.5647 27.5059 53.8699 26.829 53.0326 26.829C52.7298 26.829 52.4447 26.9181 52.1953 27.0784Z" fill="#E94830"/>
<path d="M2.74347 10.3147C2.74347 11.0808 2.11995 11.6865 1.37173 11.6865C0.623515 11.6865 0 11.0629 0 10.3147C0 9.54869 0.623515 8.94299 1.37173 8.94299C2.11995 8.94299 2.74347 9.56651 2.74347 10.3147Z" fill="#A5C840"/>
<path d="M63.8108 2.22684C63.8108 2.47625 63.7574 2.65439 63.6505 2.74347C63.5436 2.85036 63.3476 2.93943 63.0626 3.02851C62.7776 3.13539 62.5103 3.24229 62.2788 3.34917C62.0472 3.45606 61.8334 3.54513 61.6552 3.63421C61.4771 3.72328 61.3346 3.79454 61.2277 3.84798C61.1208 3.90143 61.0674 3.93706 61.0495 3.93706C61.0139 3.93706 60.9961 3.90143 60.9961 3.81235C60.9961 3.66983 61.0139 3.49169 61.0674 3.29573C61.103 3.08195 61.1564 2.95725 61.2277 2.90381C61.2811 2.86818 61.3346 2.83255 61.388 2.79692C61.4415 2.76129 61.5483 2.70784 61.6909 2.65439C61.584 2.58314 61.4771 2.47625 61.3702 2.33373C61.2811 2.20903 61.2277 2.03088 61.2277 1.83492C61.2277 1.60333 61.2811 1.38955 61.388 1.15796C61.4949 0.944181 61.6196 0.748221 61.7799 0.570074C61.9403 0.409741 62.1362 0.26722 62.3322 0.160332C62.546 0.0534431 62.7598 0 62.9557 0C63.0982 0 63.2229 0.0356295 63.312 0.0890737C63.4011 0.142518 63.4545 0.267221 63.4545 0.445368C63.4545 0.570072 63.4367 0.712593 63.4189 0.855111C63.3833 0.997629 63.3476 1.06888 63.312 1.06888C63.2586 1.06888 63.1873 1.05107 63.0982 1.01544C63.0092 0.979813 62.8666 0.961995 62.6885 0.961995C62.5282 0.961995 62.3678 1.01544 62.2075 1.12233C62.0472 1.22922 61.9581 1.38955 61.9581 1.60333C61.9581 1.78147 62.0293 1.92399 62.1719 1.99525C62.3144 2.08433 62.4747 2.11995 62.6707 2.11995C62.8132 2.11995 62.9379 2.10214 63.0448 2.06651C63.1517 2.03088 63.2586 1.99525 63.3298 1.95962C63.4189 1.92399 63.4902 1.87055 63.5436 1.85273C63.597 1.8171 63.6505 1.79929 63.6861 1.79929C63.7396 1.79929 63.7574 1.83492 63.7752 1.92399C63.8108 2.03088 63.8108 2.11995 63.8108 2.22684Z" fill="url(#paint1_radial_1361_13253)"/>
<path d="M19.1523 28.5571C19.1523 27.7198 19.7759 27.1319 20.6132 27.1319C21.4504 27.1319 22.0561 27.7198 22.0561 28.5571C22.0561 29.3944 21.4504 29.9823 20.6132 29.9823C19.7759 29.9823 19.1523 29.3944 19.1523 28.5571ZM21.5395 28.5571C21.5395 27.9692 21.1476 27.5773 20.5953 27.5773C20.0609 27.5773 19.6512 27.9692 19.6512 28.5571C19.6512 29.145 20.0609 29.5369 20.5953 29.5369C21.1476 29.5369 21.5395 29.1628 21.5395 28.5571Z" fill="white"/>
<path d="M24.5868 29.7862C24.4265 29.9109 24.1949 29.9822 23.9811 29.9822C23.411 29.9822 23.0904 29.6793 23.0904 29.1093V27.5772H22.6094V27.1675H23.0904V26.5618H23.5892V27.1675H24.3908V27.5772H23.5892V29.0915C23.5892 29.3943 23.7495 29.5546 24.0346 29.5546C24.1771 29.5546 24.3196 29.5012 24.4265 29.4299L24.5868 29.7862Z" fill="white"/>
<path d="M25.457 26.0452H25.9558V29.9466H25.457V26.0452Z" fill="white"/>
<path d="M29.7867 27.1675V29.9644H29.3057V29.5368C29.092 29.8219 28.7535 29.9822 28.3616 29.9822C27.6312 29.9822 27.168 29.5903 27.168 28.7708V27.1675H27.6668V28.7174C27.6668 29.2696 27.934 29.5368 28.415 29.5368C28.9494 29.5368 29.2701 29.2162 29.2701 28.6105V27.1675H29.7867Z" fill="white"/>
<path d="M33.9211 28.557C33.9211 29.4122 33.3333 29.9822 32.5138 29.9822C32.104 29.9822 31.7477 29.8219 31.5162 29.5012V29.9466H31.0352V26.0452H31.534V27.5772C31.7656 27.2744 32.1219 27.1319 32.5138 27.1319C33.3154 27.1319 33.9211 27.7019 33.9211 28.557ZM33.4045 28.557C33.4045 27.9692 32.9948 27.5772 32.4603 27.5772C31.9259 27.5772 31.5162 27.9692 31.5162 28.557C31.5162 29.1449 31.9259 29.5369 32.4603 29.5369C32.9948 29.5369 33.4045 29.1627 33.4045 28.557Z" fill="white"/>
<path d="M34.5781 29.6259C34.5781 29.4122 34.7385 29.2697 34.9344 29.2697C35.1304 29.2697 35.2907 29.4122 35.2907 29.6259C35.2907 29.8397 35.1304 29.9822 34.9344 29.9822C34.7385 29.9822 34.5781 29.8397 34.5781 29.6259Z" fill="white"/>
<path d="M35.9531 28.5571C35.9531 27.7198 36.5766 27.1319 37.4318 27.1319C37.9306 27.1319 38.3403 27.3457 38.5719 27.7198L38.18 27.9692C38.0018 27.702 37.7346 27.5773 37.4139 27.5773C36.8617 27.5773 36.4519 27.9692 36.4519 28.5571C36.4519 29.1628 36.8617 29.5369 37.4139 29.5369C37.7168 29.5369 38.0018 29.4122 38.18 29.145L38.5719 29.3944C38.3581 29.7863 37.9306 30.0001 37.4318 30.0001C36.5766 29.9823 35.9531 29.3944 35.9531 28.5571Z" fill="white"/>
<path d="M39.1758 28.5571C39.1758 27.7198 39.7993 27.1319 40.6366 27.1319C41.4739 27.1319 42.0796 27.7198 42.0796 28.5571C42.0796 29.3944 41.4739 29.9823 40.6366 29.9823C39.7993 29.9823 39.1758 29.3944 39.1758 28.5571ZM41.563 28.5571C41.563 27.9692 41.171 27.5773 40.6188 27.5773C40.0665 27.5773 39.6746 27.9692 39.6746 28.5571C39.6746 29.145 40.0843 29.5369 40.6188 29.5369C41.1532 29.5369 41.563 29.1628 41.563 28.5571Z" fill="white"/>
<path d="M47.6726 28.3432V29.9465H47.1738V28.3966C47.1738 27.8444 46.9066 27.5771 46.4612 27.5771C45.9624 27.5771 45.6239 27.8978 45.6239 28.5035V29.9465H45.1251V28.3966C45.1251 27.8444 44.8579 27.5771 44.3947 27.5771C43.8959 27.5771 43.5574 27.8978 43.5574 28.5035V29.9465H43.0586V27.1496H43.5396V27.5593C43.7356 27.2743 44.074 27.114 44.5016 27.114C44.9291 27.114 45.2854 27.2743 45.4636 27.6306C45.6774 27.3099 46.0693 27.114 46.5325 27.114C47.2094 27.1318 47.6726 27.5237 47.6726 28.3432Z" fill="white"/>
<defs>
<radialGradient id="paint0_radial_1361_13253" cx="0" cy="0" r="1" gradientUnits="userSpaceOnUse" gradientTransform="translate(35.5083 14.1381) scale(21.3786 21.3786)">
<stop offset="0.00083705" stop-color="#A5C840"/>
<stop offset="0.2258" stop-color="#AACA41"/>
<stop offset="0.3602" stop-color="#B0CC44"/>
<stop offset="0.76" stop-color="#ABCA42"/>
<stop offset="0.999" stop-color="#A5C840"/>
</radialGradient>
<radialGradient id="paint1_radial_1361_13253" cx="0" cy="0" r="1" gradientUnits="userSpaceOnUse" gradientTransform="translate(62.4048 1.98203) scale(1.71109 1.71109)">
<stop offset="0.00083705" stop-color="#A5C840"/>
<stop offset="0.2258" stop-color="#AACA41"/>
<stop offset="0.3602" stop-color="#B0CC44"/>
<stop offset="0.76" stop-color="#ABCA42"/>
<stop offset="0.999" stop-color="#A5C840"/>
</radialGradient>
</defs>
</svg>
