<svg width="17" height="18" viewBox="0 0 17 18" fill="none" xmlns="http://www.w3.org/2000/svg">
<path d="M11.9531 9.23294C12.5201 8.74391 12.9748 8.13906 13.2864 7.45944C13.5981 6.77982 13.7594 6.04134 13.7594 5.29412C13.7594 3.89003 13.1997 2.54345 12.2034 1.55061C11.2071 0.557772 9.85584 0 8.44688 0C7.03791 0 5.68666 0.557772 4.69037 1.55061C3.69408 2.54345 3.13438 3.89003 3.13438 5.29412C3.14093 6.04544 3.3105 6.78646 3.63145 7.46634C3.9524 8.14622 4.41712 8.74887 4.99375 9.23294C3.5064 9.90411 2.24449 10.988 1.35892 12.3549C0.473338 13.7219 0.00156385 15.3141 0 16.9412C0 17.222 0.111942 17.4913 0.311199 17.6899C0.510456 17.8884 0.780708 18 1.0625 18C1.34429 18 1.61454 17.8884 1.8138 17.6899C2.01306 17.4913 2.125 17.222 2.125 16.9412C2.125 15.2563 2.79665 13.6404 3.99219 12.449C5.18774 11.2576 6.80925 10.5882 8.5 10.5882C10.1908 10.5882 11.8123 11.2576 13.0078 12.449C14.2034 13.6404 14.875 15.2563 14.875 16.9412C14.875 17.222 14.9869 17.4913 15.1862 17.6899C15.3855 17.8884 15.6557 18 15.9375 18C16.2193 18 16.4895 17.8884 16.6888 17.6899C16.8881 17.4913 17 17.222 17 16.9412C16.9938 15.3083 16.5142 13.7119 15.6188 12.3444C14.7234 10.9768 13.4504 9.8963 11.9531 9.23294ZM8.44688 8.47059C7.81645 8.47059 7.20018 8.28429 6.676 7.93526C6.15181 7.58622 5.74326 7.09012 5.50201 6.5097C5.26075 5.92928 5.19763 5.29059 5.32062 4.67442C5.44361 4.05824 5.74719 3.49225 6.19297 3.04801C6.63875 2.60378 7.20671 2.30125 7.82503 2.17868C8.44334 2.05612 9.08424 2.11902 9.66668 2.35944C10.2491 2.59986 10.7469 3.007 11.0972 3.52937C11.4474 4.05173 11.6344 4.66587 11.6344 5.29412C11.6344 6.13657 11.2986 6.94452 10.7008 7.54022C10.103 8.13593 9.29225 8.47059 8.44688 8.47059Z" fill="white"/>
</svg>
